Coordinates
version=1
nRows=60
nColumns=12
inDegrees=yes

Units are S.I. units (second, meters, Newtons, ...)
Angles are in degrees

endheader
time	SC_y	SC_z	SC_x	AC_y	AC_z	AC_x	GH_y	GH_z	GH_yy	EL_x	PS_y
       0.0              -40.79          29.71          58.34          54.14          7.711           2.91         -10.94         0.6632         -68.47          131.0          158.5
    0.0276               -40.8           29.7          58.34          54.15          7.709          2.911         -10.92         0.6718         -68.48          131.0          158.5
   0.05519               -40.8           29.7          58.34          54.15          7.706          2.911         -10.89          0.681         -68.49          130.9          158.5
   0.08279               -40.8          29.69          58.34          54.15          7.703          2.912         -10.86         0.6908          -68.5          130.9          158.5
    0.1104               -40.8          29.69          58.34          54.15            7.7          2.913         -10.83         0.7012         -68.52          130.9          158.5
     0.138              -40.81          29.68          58.34          54.15          7.697          2.913          -10.8         0.7123         -68.53          130.9          158.5
    0.1656              -40.81          29.68          58.34          54.16          7.694          2.914         -10.76         0.7241         -68.55          130.9          158.5
    0.1932              -40.81          29.67          58.34          54.16           7.69          2.915         -10.72         0.7368         -68.57          130.9          158.5
    0.2208              -40.82          29.66          58.34          54.16          7.686          2.916         -10.68         0.7503         -68.58          130.8          158.4
    0.2484              -40.82          29.65          58.34          54.16          7.682          2.917         -10.64         0.7649          -68.6          130.8          158.4
     0.276              -40.82          29.65          58.34          54.17          7.678          2.918         -10.59         0.7805         -68.62          130.8          158.4
    0.3035              -40.83          29.64          58.34          54.17          7.673          2.919         -10.54         0.7973         -68.65          130.8          158.4
    0.3311              -40.83          29.63          58.34          54.17          7.668           2.92         -10.49         0.8154         -68.67          130.7          158.4
    0.3587              -40.84          29.62          58.35          54.17          7.662          2.921         -10.43          0.835          -68.7          130.7          158.4
    0.3863              -40.84          29.61          58.35          54.18          7.656          2.923         -10.37         0.8562         -68.72          130.7          158.4
    0.4139              -40.85          29.59          58.35          54.18          7.649          2.924          -10.3         0.8792         -68.75          130.6          158.4
    0.4415              -40.86          29.58          58.35          54.19          7.642          2.926         -10.22         0.9042         -68.79          130.6          158.3
    0.4691              -40.86          29.56          58.35          54.19          7.634          2.927         -10.14         0.9314         -68.82          130.6          158.3
    0.4967              -40.87          29.55          58.35           54.2          7.626          2.929         -10.05         0.9611         -68.86          130.5          158.3
    0.5243              -40.88          29.53          58.35           54.2          7.616          2.931         -9.957         0.9936         -68.91          130.5          158.3
    0.5519              -40.89          29.51          58.36          54.21          7.606          2.934          -9.85          1.029         -68.95          130.4          158.3
    0.5795               -40.9          29.49          58.36          54.21          7.595          2.936         -9.733          1.069          -69.0          130.4          158.2
    0.6071              -40.91          29.47          58.36          54.22          7.582          2.939         -9.603          1.112         -69.06          130.3          158.2
    0.6347              -40.92          29.44          58.36          54.23          7.568          2.942          -9.46           1.16         -69.13          130.2          158.2
    0.6623              -40.94          29.41          58.36          54.24          7.553          2.946           -9.3          1.214          -69.2          130.1          158.1
    0.6899              -40.95          29.38          58.37          54.25          7.536          2.949         -9.121          1.273         -69.28          130.1          158.1
    0.7175              -40.97          29.34          58.37          54.26          7.516          2.954         -8.922           1.34         -69.36          130.0          158.1
    0.7451              -40.99           29.3          58.38          54.27          7.495          2.959         -8.697          1.415         -69.46          129.8          158.0
    0.7727              -41.01          29.26          58.38          54.29           7.47          2.964         -8.443            1.5         -69.58          129.7          158.0
    0.8003              -41.04           29.2          58.38          54.31          7.443           2.97         -8.155          1.597          -69.7          129.6          157.9
    0.8279              -41.07          29.15          58.39          54.32          7.411          2.977         -7.826          1.707         -69.85          129.4          157.8
    0.8555               -41.1          29.08           58.4          54.35          7.374          2.985         -7.448          1.833         -70.02          129.2          157.7
     0.883              -41.14           29.0           58.4          54.37          7.332          2.995         -7.012          1.979         -70.21          129.0          157.6
    0.9106              -41.18          28.91          58.41           54.4          7.284          3.006         -6.506          2.149         -70.43          128.7          157.5
    0.9382              -41.24           28.8          58.42          54.43          7.227          3.018         -5.913          2.347          -70.7          128.4          157.4
    0.9658               -41.3          28.67          58.44          54.47          7.159          3.033         -5.214          2.581          -71.0          128.1          157.3
    0.9934              -41.37          28.52          58.45          54.52          7.079          3.051         -4.384          2.859         -71.37          127.7          157.1
     1.021              -41.46          28.34          58.47          54.58          6.983          3.072         -3.389          3.192         -71.81          127.2          156.9
     1.049              -41.56          28.13          58.49          54.65          6.867          3.098         -2.184          3.595         -72.35          126.6          156.6
     1.076              -41.69          27.86          58.51          54.73          6.726           3.13        -0.7135          4.087          -73.0          125.8          156.3
     1.104              -41.85          27.53          58.54          54.84          6.551          3.169          1.102          4.694          -73.8          124.9          155.9
     1.131              -42.05          27.12          58.58          54.97          6.332          3.217          3.366          5.452          -74.8          123.8          155.4
     1.159               -42.3          26.61          58.63          55.13          6.058          3.279          6.218          6.406         -76.06          122.4          154.8
     1.187              -42.62          25.95          58.69          55.34          5.708          3.356          9.843          7.619         -77.67          120.5          154.0
     1.214              -43.03          25.11          58.77          55.61          5.261          3.456          14.48          9.172         -79.72          118.2          153.0
     1.242              -43.55          24.03          58.88          55.95          4.687          3.584          20.44          11.16         -82.36          115.2          151.7
     1.269              -44.22          22.66          59.01          56.39          3.955          3.747          28.04          13.71         -85.73          111.4          150.1
     1.297              -45.06          20.93          59.17          56.94          3.033          3.952          37.61          16.91         -89.96          106.6          148.0
     1.325              -46.08          18.82          59.37          57.61           1.91          4.203          49.26          20.81         -95.12          100.8          145.5
     1.352              -47.27          16.38           59.6          58.39         0.6083          4.493          62.77          25.33         -101.1          93.99          142.5
      1.38              -48.56          13.73          59.86          59.23        -0.8012          4.807           77.4          30.23         -107.6          86.65          139.4
     1.407              -49.84          11.08          60.11          60.08         -2.211          5.121          92.03          35.12         -114.0          79.31          136.2
     1.435              -51.03          8.641          60.34          60.85         -3.512          5.411          105.5          39.64         -120.0          72.53          133.3
     1.463              -52.05          6.533          60.54          61.53         -4.636          5.661          117.2          43.54         -125.2          66.68          130.7
      1.49              -52.89          4.804          60.71          62.08         -5.557          5.866          126.8          46.74         -129.4          61.88          128.7
     1.518              -53.56          3.428          60.84          62.52          -6.29          6.029          134.4          49.29         -132.8          58.06          127.0
     1.545              -54.08          2.351          60.94          62.86         -6.864          6.157          140.3          51.28         -135.4          55.08          125.7
     1.573              -54.49          1.511          61.02          63.13         -7.311          6.257          145.0          52.83         -137.5          52.75          124.7
     1.601              -54.81         0.8558          61.08          63.33          -7.66          6.335          148.6          54.05         -139.1          50.93          123.9
     1.628              -55.06           0.34          61.13           63.5         -7.935          6.396          151.4           55.0         -140.3           49.5          123.3
